<?xml version="1.0" encoding="UTF-8"?>
<svg xmlns="http://www.w3.org/2000/svg" xmlns:xlink="http://www.w3.org/1999/xlink" viewBox="0 0 30 30" width="30px" height="30px">
<g id="surface18757">
<path style="fill-rule:nonzero;fill:rgb(0%,0%,0%);fill-opacity:1;stroke-width:10;stroke-linecap:butt;stroke-linejoin:round;stroke:rgb(100%,100%,100%);stroke-opacity:1;stroke-miterlimit:10;" d="M 165.12244 86.000003 C 165.12244 129.698031 129.698031 165.12244 86.000003 165.12244 C 72.591032 165.12244 59.847755 161.675098 48.840036 155.826504 L 11.014376 165.12244 C 9.968286 165.12244 8.589349 165.12244 7.567034 164.07635 C 6.877566 163.054035 6.544719 161.675098 6.877566 160.652783 L 17.195816 124.515131 C 10.657754 113.174566 6.877566 100.098442 6.877566 86.000003 C 6.877566 42.301974 42.301974 6.877566 86.000003 6.877566 C 129.698031 6.877566 165.12244 42.301974 165.12244 86.000003 Z M 13.748474 86.000003 C 13.748474 99.408973 17.552438 111.795629 23.733878 122.470501 C 24.0905 123.492816 24.423347 124.182284 24.0905 125.228374 L 15.484033 156.872594 L 48.507189 148.598974 C 49.196658 148.266127 50.218973 148.598974 50.908441 148.955595 C 61.226692 154.804189 73.2805 158.251531 86.000003 158.251531 C 125.894068 158.251531 158.251531 125.894068 158.251531 86.000003 C 158.251531 46.105937 125.894068 13.748474 86.000003 13.748474 C 46.105937 13.748474 13.748474 46.105937 13.748474 86.000003 Z M 64.674033 45.416469 C 66.385817 46.082163 67.764754 47.817721 68.810843 50.218973 C 69.476537 52.287378 70.855474 55.73472 72.23441 58.82544 C 72.923879 60.204376 73.613347 61.91616 73.969969 62.96225 C 74.659437 63.984565 74.992284 65.00688 74.992284 65.00688 C 75.681752 66.385817 76.371221 69.14369 74.992284 71.544942 C 74.659437 72.23441 74.397915 72.923879 74.041293 73.613347 C 73.87487 73.969969 73.684671 74.302815 73.446924 74.635662 C 73.209176 74.992284 72.923879 75.325131 72.591032 75.681752 C 71.901564 76.704067 70.522627 78.083004 69.476537 79.461941 C 70.522627 81.530346 74.302815 87.378939 79.794788 92.205218 C 83.598751 95.628785 86.689471 97.69719 89.447344 99.076127 C 91.848596 100.455063 93.917001 101.144532 95.295938 101.834 L 95.628785 102.166847 C 97.007721 100.78791 100.78791 95.985406 101.834 94.60647 C 102.856315 92.870911 104.568099 91.848596 106.303657 91.491975 C 108.01544 91.159128 109.394377 91.848596 110.416692 92.205218 C 112.15225 92.870911 114.553502 94.249848 117.644222 95.628785 C 120.402096 97.007721 123.492816 98.386658 124.515131 99.076127 C 126.583536 99.765595 128.319095 99.765595 130.030878 102.523468 C 130.720346 103.902405 131.053193 103.87863 131.053193 104.92472 L 131.053193 107.682594 C 130.720346 109.727224 130.363725 112.15225 129.34141 114.886349 C 127.962473 118.333691 124.871753 120.734943 121.781033 122.803348 C 118.690312 124.871753 115.575817 126.250689 112.841719 126.583536 C 109.06153 126.940158 103.87863 127.273005 98.386658 125.561221 C 95.295938 124.538906 91.159128 123.159969 86.332849 121.091564 C 75.325131 116.621907 66.742438 109.06153 60.537223 102.523468 C 57.446503 99.076127 55.045251 96.318253 53.309693 93.917001 C 51.597909 91.515749 50.218973 89.780191 50.218973 89.780191 C 49.196658 88.757876 41.279659 78.772472 41.279659 67.075285 C 41.279659 56.067566 47.484874 49.886126 49.196658 48.150568 C 51.954531 45.416469 55.045251 44.727001 57.113656 44.727001 L 61.226692 44.727001 C 61.226692 44.727001 61.654637 44.631902 62.320331 44.679451 C 62.96225 44.727001 63.818142 44.893424 64.674033 45.416469 Z M 54.355783 52.976846 C 52.287378 55.378098 48.150568 58.82544 48.150568 67.431907 C 48.150568 75.681752 54.68863 84.621066 56.067566 86.000003 C 56.757035 86.689471 57.446503 88.068408 59.158287 90.136813 C 60.893845 92.181443 63.295097 94.939316 66.05297 98.030037 C 71.901564 104.235252 79.818562 111.106161 89.447344 115.242971 C 94.249848 117.311376 98.053811 118.333691 100.78791 119.356006 C 105.257567 120.734943 109.037755 120.402096 112.15225 120.045474 C 113.174566 119.712628 115.932439 118.690312 118.333691 117.311376 C 120.402096 115.932439 122.470501 113.864034 122.803348 112.841719 C 123.492816 110.773314 123.849438 108.704909 123.849438 107.325972 L 123.849438 106.303657 L 121.781033 105.257567 C 120.734943 104.568099 118.000844 103.189162 114.886349 101.834 C 113.174566 101.144532 111.795629 100.455063 110.416692 99.765595 C 109.037755 99.076127 108.01544 98.719505 108.01544 98.719505 L 107.325972 98.386658 C 105.614188 101.144532 102.166847 105.257567 100.78791 106.636504 C 99.765595 107.682594 98.386658 109.037755 96.6511 109.037755 C 94.939316 109.037755 93.56038 108.704909 92.205218 108.01544 C 91.515749 107.682594 89.090723 106.993125 86.000003 105.257567 C 82.909282 103.87863 79.129094 101.477378 74.992284 97.69719 C 68.454222 91.848596 64.341187 84.977688 62.96225 82.909282 C 61.91616 81.173724 61.583313 78.772472 62.272781 77.393536 C 62.96225 76.014599 63.984565 75.325131 64.317412 74.635662 C 64.674033 73.946194 66.05297 72.591032 67.075285 71.212095 C 68.121375 70.166005 68.121375 69.833159 68.810843 68.454222 C 68.810843 68.454222 68.454222 68.454222 68.454222 68.121375 C 68.121375 67.431907 67.764754 66.742438 67.431907 65.696348 C 67.075285 64.674033 66.385817 62.96225 65.696348 61.583313 C 64.674033 58.492593 62.96225 55.045251 62.272781 52.976846 C 61.91616 51.954531 61.583313 51.597909 61.583313 51.597909 L 57.113656 51.597909 C 56.757035 51.597909 55.378098 51.597909 54.355783 52.976846 Z M 54.355783 52.976846 " transform="matrix(0.164302,0,0,0.164302,0.87,0.87)"/>
<path style=" stroke:none;fill-rule:nonzero;fill:rgb(0%,0%,0%);fill-opacity:1;" d="M 15 2 C 7.820312 2 2 7.820312 2 15 C 2 17.316406 2.621094 19.464844 3.695312 21.328125 L 2 27.265625 C 1.945312 27.433594 2 27.660156 2.113281 27.828125 C 2.28125 28 2.507812 28 2.679688 28 L 8.894531 26.472656 C 10.703125 27.433594 12.796875 28 15 28 C 22.179688 28 28 22.179688 28 15 C 28 7.820312 22.179688 2 15 2 Z M 15 3.128906 C 21.554688 3.128906 26.871094 8.445312 26.871094 15 C 26.871094 21.554688 21.554688 26.871094 15 26.871094 C 12.910156 26.871094 10.929688 26.304688 9.234375 25.34375 C 9.121094 25.285156 8.953125 25.230469 8.839844 25.285156 L 3.414062 26.644531 L 4.828125 21.445312 C 4.882812 21.273438 4.828125 21.160156 4.769531 20.992188 C 3.753906 19.238281 3.128906 17.203125 3.128906 15 C 3.128906 8.445312 8.445312 3.128906 15 3.128906 Z M 11.109375 8.210938 C 11 8.203125 10.929688 8.21875 10.929688 8.21875 L 10.253906 8.21875 C 9.914062 8.21875 9.40625 8.332031 8.953125 8.78125 C 8.671875 9.066406 7.652344 10.082031 7.652344 11.890625 C 7.652344 13.8125 8.953125 15.453125 9.121094 15.621094 C 9.121094 15.621094 9.347656 15.90625 9.628906 16.300781 C 9.914062 16.695312 10.308594 17.148438 10.816406 17.714844 C 11.835938 18.789062 13.246094 20.03125 15.054688 20.765625 C 15.847656 21.105469 16.527344 21.332031 17.035156 21.5 C 17.9375 21.78125 18.789062 21.726562 19.410156 21.667969 C 19.859375 21.613281 20.371094 21.386719 20.878906 21.046875 C 21.386719 20.707031 21.894531 20.3125 22.121094 19.746094 C 22.289062 19.296875 22.347656 18.898438 22.402344 18.5625 L 22.402344 18.109375 C 22.402344 17.9375 22.347656 17.941406 22.234375 17.714844 C 21.953125 17.261719 21.667969 17.261719 21.328125 17.148438 C 21.160156 17.035156 20.652344 16.808594 20.199219 16.582031 C 19.691406 16.355469 19.296875 16.128906 19.011719 16.019531 C 18.84375 15.960938 18.617188 15.847656 18.335938 15.902344 C 18.050781 15.960938 17.769531 16.128906 17.601562 16.414062 C 17.429688 16.640625 16.808594 17.429688 16.582031 17.65625 L 16.527344 17.601562 C 16.300781 17.488281 15.960938 17.375 15.566406 17.148438 C 15.113281 16.921875 14.605469 16.582031 13.980469 16.019531 C 13.078125 15.226562 12.457031 14.265625 12.285156 13.925781 C 12.457031 13.699219 12.683594 13.472656 12.796875 13.304688 C 12.851562 13.246094 12.898438 13.191406 12.9375 13.132812 C 12.976562 13.078125 13.007812 13.023438 13.035156 12.964844 C 13.09375 12.851562 13.136719 12.738281 13.191406 12.625 C 13.417969 12.230469 13.304688 11.777344 13.191406 11.550781 C 13.191406 11.550781 13.136719 11.382812 13.023438 11.214844 C 12.964844 11.042969 12.851562 10.761719 12.738281 10.535156 C 12.511719 10.027344 12.285156 9.460938 12.175781 9.121094 C 12.003906 8.726562 11.777344 8.441406 11.496094 8.332031 C 11.355469 8.246094 11.214844 8.21875 11.109375 8.210938 Z M 10.253906 9.347656 L 10.988281 9.347656 C 10.988281 9.347656 11.042969 9.40625 11.101562 9.574219 C 11.214844 9.914062 11.496094 10.480469 11.664062 10.988281 C 11.777344 11.214844 11.890625 11.496094 11.949219 11.664062 C 12.003906 11.835938 12.0625 11.949219 12.117188 12.0625 C 12.117188 12.117188 12.175781 12.117188 12.175781 12.117188 C 12.0625 12.34375 12.0625 12.398438 11.890625 12.570312 C 11.722656 12.796875 11.496094 13.019531 11.4375 13.132812 C 11.382812 13.246094 11.214844 13.359375 11.101562 13.585938 C 10.988281 13.8125 11.042969 14.207031 11.214844 14.492188 C 11.441406 14.832031 12.117188 15.960938 13.191406 16.921875 C 13.871094 17.542969 14.492188 17.9375 15 18.164062 C 15.507812 18.449219 15.90625 18.5625 16.019531 18.617188 C 16.242188 18.730469 16.46875 18.785156 16.75 18.785156 C 17.035156 18.785156 17.261719 18.5625 17.429688 18.390625 C 17.65625 18.164062 18.222656 17.488281 18.503906 17.035156 L 18.617188 17.089844 C 18.617188 17.089844 18.785156 17.148438 19.011719 17.261719 C 19.238281 17.375 19.464844 17.488281 19.746094 17.601562 C 20.257812 17.824219 20.707031 18.050781 20.878906 18.164062 L 21.21875 18.335938 L 21.21875 18.503906 C 21.21875 18.730469 21.160156 19.070312 21.046875 19.410156 C 20.992188 19.578125 20.652344 19.917969 20.3125 20.144531 C 19.917969 20.371094 19.464844 20.539062 19.296875 20.59375 C 18.785156 20.652344 18.164062 20.707031 17.429688 20.480469 C 16.980469 20.3125 16.355469 20.144531 15.566406 19.804688 C 13.984375 19.125 12.683594 17.996094 11.722656 16.976562 C 11.269531 16.46875 10.875 16.015625 10.589844 15.679688 C 10.308594 15.339844 10.195312 15.113281 10.082031 15 C 9.855469 14.773438 8.78125 13.304688 8.78125 11.949219 C 8.78125 10.535156 9.460938 9.96875 9.800781 9.574219 C 9.96875 9.347656 10.195312 9.347656 10.253906 9.347656 Z M 10.253906 9.347656 "/>
</g>
</svg>
